                                                                        S      1
,,19HAluminium Flange v2,16HAluminium Flange,7Hunknown,7Hunknown,32,38, G      1
7,99,15,,1.,2,2HMM,1,0.08,15H20250722.143109,0.01,10000.,7Hunknown,7HunkG      2
nown,11,0,15H20250719.045937;                                           G      3
     186       1                                                00000000D      1
     186            -197       1       0                               0D      2
     514       2                                                00010000D      3
     514                       1       1                               0D      4
     510       3                                                00010000D      5
     510            -197       1       1                               0D      6
     510       4                                                00010000D      7
     510            -197       1       1                               0D      8
     510       5                                                00010000D      9
     510            -197       1       1                               0D     10
     510       6                                                00010000D     11
     510            -197       1       1                               0D     12
     510       7                                                00010000D     13
     510            -197       1       1                               0D     14
     510       8                                                00010000D     15
     510            -197       1       1                               0D     16
     510       9                                                00010000D     17
     510            -197       1       1                               0D     18
     510      10                                                00010000D     19
     510            -197       1       1                               0D     20
     510      11                                                00010000D     21
     510            -197       1       1                               0D     22
     510      12                                                00010000D     23
     510            -197       1       1                               0D     24
     510      13                                                00010000D     25
     510            -197       1       1                               0D     26
     510      14                                                00010000D     27
     510            -197       1       1                               0D     28
     508      15                                                00010000D     29
     508                       2       1                               0D     30
     508      17                                                00010000D     31
     508                       2       1                               0D     32
     508      19                                                00010000D     33
     508                       2       1                               0D     34
     508      21                                                00010000D     35
     508                       2       1                               0D     36
     508      23                                                00010000D     37
     508                       2       1                               0D     38
     508      25                                                00010000D     39
     508                       2       1                               0D     40
     508      27                                                00010000D     41
     508                       2       1                               0D     42
     508      29                                                00010000D     43
     508                       2       1                               0D     44
     508      31                                                00010000D     45
     508                       2       1                               0D     46
     508      33                                                00010000D     47
     508                       1       1                               0D     48
     508      34                                                00010000D     49
     508                       1       1                               0D     50
     508      35                                                00010000D     51
     508                       1       1                               0D     52
     508      36                                                00010000D     53
     508                       1       1                               0D     54
     508      37                                                00010000D     55
     508                       1       1                               0D     56
     508      38                                                00010000D     57
     508                       1       1                               0D     58
     508      39                                                00010000D     59
     508                       1       1                               0D     60
     508      40                                                00010000D     61
     508                       1       1                               0D     62
     508      41                                                00010000D     63
     508                       1       1                               0D     64
     508      42                                                00010000D     65
     508                       1       1                               0D     66
     508      43                                                00010000D     67
     508                       1       1                               0D     68
     508      44                                                00010000D     69
     508                       1       1                               0D     70
     508      45                                                00010000D     71
     508                       1       1                               0D     72
     508      46                                                00010000D     73
     508                       1       1                               0D     74
     508      47                                                00010000D     75
     508                       1       1                               0D     76
     508      48                                                00010000D     77
     508                       1       1                               0D     78
     508      49                                                00010000D     79
     508                       1       1                               0D     80
     508      50                                                00010000D     81
     508                       1       1                               0D     82
     508      51                                                00010000D     83
     508                       1       1                               0D     84
     508      52                                                00010000D     85
     508                       1       1                               0D     86
     508      53                                                00010000D     87
     508                       1       1                               0D     88
     126      54                                                00010000D     89
     126       0               5       0                               0D     90
     126      59                                                00010000D     91
     126       0               7       0                               0D     92
     126      66                                                00010000D     93
     126       0               3       0                               0D     94
     126      69                                                00010000D     95
     126       0               9       0                               0D     96
     126      78                                                00010000D     97
     126       0               5       0                               0D     98
     126      83                                                00010000D     99
     126       0               6       0                               0D    100
     126      89                                                00010000D    101
     126       0               3       0                               0D    102
     126      92                                                00010000D    103
     126       0               9       0                               0D    104
     126     101                                                00010000D    105
     126       0               5       0                               0D    106
     126     106                                                00010000D    107
     126       0               7       0                               0D    108
     126     113                                                00010000D    109
     126       0               3       0                               0D    110
     126     116                                                00010000D    111
     126       0               9       0                               0D    112
     126     125                                                00010000D    113
     126       0               5       0                               0D    114
     126     130                                                00010000D    115
     126       0               6       0                               0D    116
     126     136                                                00010000D    117
     126       0               3       0                               0D    118
     126     139                                                00010000D    119
     126       0               9       0                               0D    120
     126     148                                                00010000D    121
     126       0               7       0                               0D    122
     126     155                                                00010000D    123
     126       0               8       0                               0D    124
     126     163                                                00010000D    125
     126       0               4       0                               0D    126
     126     167                                                00010000D    127
     126       0              12       0                               0D    128
     126     179                                                00010000D    129
     126       0               7       0                               0D    130
     126     186                                                00010000D    131
     126       0               8       0                               0D    132
     126     194                                                00010000D    133
     126       0               4       0                               0D    134
     126     198                                                00010000D    135
     126       0              12       0                               0D    136
     126     210                                                00010000D    137
     126       0               7       0                               0D    138
     126     217                                                00010000D    139
     126       0               8       0                               0D    140
     126     225                                                00010000D    141
     126       0               4       0                               0D    142
     126     229                                                00010000D    143
     126       0              12       0                               0D    144
     126     241                                                00010000D    145
     126       0               7       0                               0D    146
     126     248                                                00010000D    147
     126       0               8       0                               0D    148
     126     256                                                00010000D    149
     126       0               4       0                               0D    150
     126     260                                                00010000D    151
     126       0              12       0                               0D    152
     126     272                                                00010000D    153
     126       0               5       0                               0D    154
     126     277                                                00010000D    155
     126       0               7       0                               0D    156
     126     284                                                00010000D    157
     126       0               3       0                               0D    158
     126     287                                                00010000D    159
     126       0               9       0                               0D    160
     126     296                                                00010000D    161
     126       0              10       0                               0D    162
     126     306                                                00010000D    163
     126       0               2       0                               0D    164
     126     308                                                00010000D    165
     126       0              10       0                               0D    166
     128     318                                                00010000D    167
     128       0    -197      14       0                               0D    168
     128     332                                                00010000D    169
     128       0    -197      14       0                               0D    170
     128     346                                                00010000D    171
     128       0    -197      13       0                               0D    172
     128     359                                                00010000D    173
     128       0    -197      13       0                               0D    174
     128     372                                                00010000D    175
     128       0    -197      21       0                               0D    176
     128     393                                                00010000D    177
     128       0    -197      21       0                               0D    178
     128     414                                                00010000D    179
     128       0    -197      21       0                               0D    180
     128     435                                                00010000D    181
     128       0    -197      21       0                               0D    182
     128     456                                                00010000D    183
     128       0    -197      13       0                               0D    184
     128     469                                                00010000D    185
     128       0    -197      12       0                               0D    186
     128     481                                                00010000D    187
     128       0    -197       3       0                               0D    188
     128     484                                                00010000D    189
     128       0    -197       3       0                               0D    190
     502     487                                                00010000D    191
     502                      14       1                               0D    192
     504     501                                                00010001D    193
     504                      11       1                               0D    194
     406     512                                                00000000D    195
     406                       1      15                               0D    196
     314     513                                                00000200D    197
     314                       2       0                               0D    198
186,3,1,0,0,1,195;                                                     1P      1
514,12,5,1,7,1,9,1,11,1,13,1,15,1,17,1,19,1,21,1,23,1,25,1,27,1;       3P      2
510,167,1,1,29;                                                        5P      3
510,169,1,1,31;                                                        7P      4
510,171,1,1,33;                                                        9P      5
510,173,1,1,35;                                                       11P      6
510,175,1,1,37;                                                       13P      7
510,177,1,1,39;                                                       15P      8
510,179,1,1,41;                                                       17P      9
510,181,1,1,43;                                                       19P     10
510,183,1,1,45;                                                       21P     11
510,185,1,1,47;                                                       23P     12
510,187,10,1,49,51,53,55,57,59,61,63,65,67;                           25P     13
510,189,10,1,69,71,73,75,77,79,81,83,85,87;                           27P     14
508,5,0,193,1,0,0,0,193,2,0,0,0,193,3,1,0,0,193,4,0,0,0,193,3,0,      29P     15
0;                                                                    29P     16
508,5,0,193,5,0,0,0,193,6,0,0,0,193,7,1,0,0,193,8,0,0,0,193,7,0,      31P     17
0;                                                                    31P     18
508,5,0,193,9,0,0,0,193,10,0,0,0,193,11,1,0,0,193,12,0,0,0,193,       33P     19
11,0,0;                                                               33P     20
508,5,0,193,13,0,0,0,193,14,0,0,0,193,15,1,0,0,193,16,0,0,0,193,      35P     21
15,0,0;                                                               35P     22
508,5,0,193,17,0,0,0,193,18,0,0,0,193,19,1,0,0,193,20,0,0,0,193,      37P     23
19,0,0;                                                               37P     24
508,5,0,193,21,0,0,0,193,22,0,0,0,193,23,1,0,0,193,24,0,0,0,193,      39P     25
23,0,0;                                                               39P     26
508,5,0,193,25,0,0,0,193,26,0,0,0,193,27,1,0,0,193,28,0,0,0,193,      41P     27
27,0,0;                                                               41P     28
508,5,0,193,29,0,0,0,193,30,0,0,0,193,31,1,0,0,193,32,0,0,0,193,      43P     29
31,0,0;                                                               43P     30
508,5,0,193,33,0,0,0,193,34,0,0,0,193,35,1,0,0,193,36,0,0,0,193,      45P     31
35,0,0;                                                               45P     32
508,4,0,193,37,0,0,0,193,38,1,0,0,193,39,1,0,0,193,38,0,0;            47P     33
508,1,0,193,37,1,0;                                                   49P     34
508,2,0,193,1,1,0,0,193,2,1,0;                                        51P     35
508,2,0,193,5,1,0,0,193,6,1,0;                                        53P     36
508,2,0,193,9,1,0,0,193,10,1,0;                                       55P     37
508,2,0,193,13,1,0,0,193,14,1,0;                                      57P     38
508,2,0,193,17,1,0,0,193,18,1,0;                                      59P     39
508,2,0,193,21,1,0,0,193,22,1,0;                                      61P     40
508,2,0,193,25,1,0,0,193,26,1,0;                                      63P     41
508,2,0,193,29,1,0,0,193,30,1,0;                                      65P     42
508,2,0,193,33,1,0,0,193,34,1,0;                                      67P     43
508,1,0,193,39,0,0;                                                   69P     44
508,1,0,193,4,1,0;                                                    71P     45
508,1,0,193,8,1,0;                                                    73P     46
508,1,0,193,12,1,0;                                                   75P     47
508,1,0,193,16,1,0;                                                   77P     48
508,1,0,193,20,1,0;                                                   79P     49
508,1,0,193,24,1,0;                                                   81P     50
508,1,0,193,28,1,0;                                                   83P     51
508,1,0,193,32,1,0;                                                   85P     52
508,1,0,193,36,1,0;                                                   87P     53
126,4,2,0,0,0,0,0.,0.,0.,1.5707963267949,1.5707963267949,             89P     54
3.14159265358979,3.14159265358979,3.14159265358979,1.,                89P     55
0.707106781186546,1.,0.707106781186546,1.,-47.95,0.,5.,-47.95,        89P     56
-3.3,5.,-51.25,-3.3,5.,-54.55,-3.3,5.,-54.55,                         89P     57
-4.04133443718627D-16,5.,0.,3.14159265358979,0.,0.,0.;                89P     58
126,4,2,0,0,0,0,3.14159265358979,3.14159265358979,                    91P     59
3.14159265358979,4.71238898038469,4.71238898038469,                   91P     60
6.28318530717959,6.28318530717959,6.28318530717959,1.,                91P     61
0.707106781186546,1.,0.707106781186546,1.,-54.55,                     91P     62
-4.04133443718627D-16,5.,-54.55,3.3,5.,-51.25,3.3,5.,-47.95,3.3,      91P     63
5.,-47.95,8.08266887437253D-16,5.,3.14159265358979,                   91P     64
6.28318530717959,0.,0.,0.;                                            91P     65
126,1,1,0,0,1,0,-2.27272727272727,-2.27272727272727,                  93P     66
-0.757575757575758,-0.757575757575758,1.,1.,-54.55,0.,5.,-54.55,      93P     67
0.,0.,-2.27272727272727,-0.757575757575758,0.,0.,0.;                  93P     68
126,8,2,0,1,0,0,-3.14159265358979,-3.14159265358979,                  95P     69
-3.14159265358979,-1.5707963267949,-1.5707963267949,0.,0.,            95P     70
1.5707963267949,1.5707963267949,3.14159265358979,                     95P     71
3.14159265358979,3.14159265358979,1.,0.707106781186546,1.,            95P     72
0.707106781186546,1.,0.707106781186546,1.,0.707106781186546,1.,       95P     73
-54.55,-4.04133443718627D-16,0.,-54.55,-3.3,0.,-51.25,-3.3,0.,        95P     74
-47.95,-3.3,0.,-47.95,0.,0.,-47.95,3.3,0.,-51.25,3.3,0.,-54.55,       95P     75
3.3,0.,-54.55,4.04133443718627D-16,0.,-3.14159265358979,              95P     76
3.14159265358979,0.,0.,0.;                                            95P     77
126,4,2,0,0,0,0,0.,0.,0.,1.5707963267949,1.5707963267949,             97P     78
3.14159265358979,3.14159265358979,3.14159265358979,1.,                97P     79
0.707106781186546,1.,0.707106781186546,1.,3.3,-51.25,5.,3.3,          97P     80
-54.55,5.,2.02066721859313D-16,-54.55,5.,-3.3,-54.55,5.,-3.3,         97P     81
-51.25,5.,0.,3.14159265358979,0.,0.,0.;                               97P     82
126,4,2,0,0,0,0,3.14159265358979,3.14159265358979,                    99P     83
3.14159265358979,4.71238898038469,4.71238898038469,                   99P     84
6.28318530717959,6.28318530717959,6.28318530717959,1.,                99P     85
0.707106781186546,1.,0.707106781186546,1.,-3.3,-51.25,5.,-3.3,        99P     86
-47.95,5.,-6.0620016557794D-16,-47.95,5.,3.3,-47.95,5.,3.3,           99P     87
-51.25,5.,3.14159265358979,6.28318530717959,0.,0.,0.;                 99P     88
126,1,1,0,0,1,0,-2.27272727272727,-2.27272727272727,                 101P     89
-0.757575757575758,-0.757575757575758,1.,1.,-3.3,-51.25,5.,-3.3,     101P     90
-51.25,0.,-2.27272727272727,-0.757575757575758,0.,0.,0.;             101P     91
126,8,2,0,1,0,0,-3.14159265358979,-3.14159265358979,                 103P     92
-3.14159265358979,-1.5707963267949,-1.5707963267949,0.,0.,           103P     93
1.5707963267949,1.5707963267949,3.14159265358979,                    103P     94
3.14159265358979,3.14159265358979,1.,0.707106781186546,1.,           103P     95
0.707106781186546,1.,0.707106781186546,1.,0.707106781186546,1.,      103P     96
-3.3,-51.25,0.,-3.3,-54.55,0.,2.02066721859313D-16,-54.55,0.,        103P     97
3.3,-54.55,0.,3.3,-51.25,0.,3.3,-47.95,0.,2.02066721859313D-16,      103P     98
-47.95,0.,-3.3,-47.95,0.,-3.3,-51.25,0.,-3.14159265358979,           103P     99
3.14159265358979,0.,0.,0.;                                           103P    100
126,4,2,0,0,0,0,0.,0.,0.,1.5707963267949,1.5707963267949,            105P    101
3.14159265358979,3.14159265358979,3.14159265358979,1.,               105P    102
0.707106781186546,1.,0.707106781186546,1.,54.55,0.,5.,54.55,         105P    103
-3.3,5.,51.25,-3.3,5.,47.95,-3.3,5.,47.95,-4.04133443718627D-16,     105P    104
5.,0.,3.14159265358979,0.,0.,0.;                                     105P    105
126,4,2,0,0,0,0,3.14159265358979,3.14159265358979,                   107P    106
3.14159265358979,4.71238898038469,4.71238898038469,                  107P    107
6.28318530717959,6.28318530717959,6.28318530717959,1.,               107P    108
0.707106781186546,1.,0.707106781186546,1.,47.95,                     107P    109
-4.04133443718627D-16,5.,47.95,3.3,5.,51.25,3.3,5.,54.55,3.3,5.,     107P    110
54.55,8.08266887437253D-16,5.,3.14159265358979,6.28318530717959,     107P    111
0.,0.,0.;                                                            107P    112
126,1,1,0,0,1,0,-2.27272727272727,-2.27272727272727,                 109P    113
-0.757575757575758,-0.757575757575758,1.,1.,47.95,0.,5.,47.95,       109P    114
0.,0.,-2.27272727272727,-0.757575757575758,0.,0.,0.;                 109P    115
126,8,2,0,1,0,0,-3.14159265358979,-3.14159265358979,                 111P    116
-3.14159265358979,-1.5707963267949,-1.5707963267949,0.,0.,           111P    117
1.5707963267949,1.5707963267949,3.14159265358979,                    111P    118
3.14159265358979,3.14159265358979,1.,0.707106781186546,1.,           111P    119
0.707106781186546,1.,0.707106781186546,1.,0.707106781186546,1.,      111P    120
47.95,-4.04133443718627D-16,0.,47.95,-3.3,0.,51.25,-3.3,0.,          111P    121
54.55,-3.3,0.,54.55,0.,0.,54.55,3.3,0.,51.25,3.3,0.,47.95,3.3,       111P    122
0.,47.95,4.04133443718627D-16,0.,-3.14159265358979,                  111P    123
3.14159265358979,0.,0.,0.;                                           111P    124
126,4,2,0,0,0,0,0.,0.,0.,1.5707963267949,1.5707963267949,            113P    125
3.14159265358979,3.14159265358979,3.14159265358979,1.,               113P    126
0.707106781186546,1.,0.707106781186546,1.,3.3,51.25,5.,3.3,          113P    127
47.95,5.,2.02066721859313D-16,47.95,5.,-3.3,47.95,5.,-3.3,51.25,     113P    128
5.,0.,3.14159265358979,0.,0.,0.;                                     113P    129
126,4,2,0,0,0,0,3.14159265358979,3.14159265358979,                   115P    130
3.14159265358979,4.71238898038469,4.71238898038469,                  115P    131
6.28318530717959,6.28318530717959,6.28318530717959,1.,               115P    132
0.707106781186546,1.,0.707106781186546,1.,-3.3,51.25,5.,-3.3,        115P    133
54.55,5.,-6.0620016557794D-16,54.55,5.,3.3,54.55,5.,3.3,51.25,       115P    134
5.,3.14159265358979,6.28318530717959,0.,0.,0.;                       115P    135
126,1,1,0,0,1,0,-2.27272727272727,-2.27272727272727,                 117P    136
-0.757575757575758,-0.757575757575758,1.,1.,-3.3,51.25,5.,-3.3,      117P    137
51.25,0.,-2.27272727272727,-0.757575757575758,0.,0.,0.;              117P    138
126,8,2,0,1,0,0,-3.14159265358979,-3.14159265358979,                 119P    139
-3.14159265358979,-1.5707963267949,-1.5707963267949,0.,0.,           119P    140
1.5707963267949,1.5707963267949,3.14159265358979,                    119P    141
3.14159265358979,3.14159265358979,1.,0.707106781186546,1.,           119P    142
0.707106781186546,1.,0.707106781186546,1.,0.707106781186546,1.,      119P    143
-3.3,51.25,0.,-3.3,47.95,0.,2.02066721859313D-16,47.95,0.,3.3,       119P    144
47.95,0.,3.3,51.25,0.,3.3,54.55,0.,2.02066721859313D-16,54.55,       119P    145
0.,-3.3,54.55,0.,-3.3,51.25,0.,-3.14159265358979,                    119P    146
3.14159265358979,0.,0.,0.;                                           119P    147
126,4,2,0,0,0,0,0.,0.,0.,1.5707963267949,1.5707963267949,            121P    148
3.14159265358979,3.14159265358979,3.14159265358979,1.,               121P    149
0.707106781186545,1.,0.707106781186545,1.,39.5392225358106,          121P    150
36.2392225358106,5.,39.5392225358106,32.9392225358106,5.,            121P    151
36.2392225358106,32.9392225358106,5.,32.9392225358106,               121P    152
32.9392225358106,5.,32.9392225358106,36.2392225358106,5.,0.,         121P    153
3.14159265358979,0.,0.,0.;                                           121P    154
126,4,2,0,0,0,0,3.14159265358979,3.14159265358979,                   123P    155
3.14159265358979,4.71238898038469,4.71238898038469,                  123P    156
6.28318530717959,6.28318530717959,6.28318530717959,1.,               123P    157
0.707106781186545,1.,0.707106781186545,1.,32.9392225358106,          123P    158
36.2392225358106,5.,32.9392225358106,39.5392225358106,5.,            123P    159
36.2392225358106,39.5392225358106,5.,39.5392225358106,               123P    160
39.5392225358106,5.,39.5392225358106,36.2392225358106,5.,            123P    161
3.14159265358979,6.28318530717959,0.,0.,0.;                          123P    162
126,1,1,0,0,1,0,-2.27272727272727,-2.27272727272727,                 125P    163
-0.757575757575758,-0.757575757575758,1.,1.,32.9392225358106,        125P    164
36.2392225358106,5.,32.9392225358106,36.2392225358106,0.,            125P    165
-2.27272727272727,-0.757575757575758,0.,0.,0.;                       125P    166
126,8,2,0,1,0,0,-3.14159265358979,-3.14159265358979,                 127P    167
-3.14159265358979,-1.5707963267949,-1.5707963267949,0.,0.,           127P    168
1.5707963267949,1.5707963267949,3.14159265358979,                    127P    169
3.14159265358979,3.14159265358979,1.,0.707106781186545,1.,           127P    170
0.707106781186545,1.,0.707106781186545,1.,0.707106781186545,1.,      127P    171
32.9392225358106,36.2392225358106,0.,32.9392225358106,               127P    172
32.9392225358106,0.,36.2392225358106,32.9392225358106,0.,            127P    173
39.5392225358106,32.9392225358106,0.,39.5392225358106,               127P    174
36.2392225358106,0.,39.5392225358106,39.5392225358106,0.,            127P    175
36.2392225358106,39.5392225358106,0.,32.9392225358106,               127P    176
39.5392225358106,0.,32.9392225358106,36.2392225358106,0.,            127P    177
-3.14159265358979,3.14159265358979,0.,0.,0.;                         127P    178
126,4,2,0,0,0,0,0.,0.,0.,1.5707963267949,1.5707963267949,            129P    179
3.14159265358979,3.14159265358979,3.14159265358979,1.,               129P    180
0.707106781186545,1.,0.707106781186545,1.,39.5392225358106,          129P    181
-36.2392225358106,5.,39.5392225358106,-39.5392225358106,5.,          129P    182
36.2392225358106,-39.5392225358106,5.,32.9392225358106,              129P    183
-39.5392225358106,5.,32.9392225358106,-36.2392225358106,5.,0.,       129P    184
3.14159265358979,0.,0.,0.;                                           129P    185
126,4,2,0,0,0,0,3.14159265358979,3.14159265358979,                   131P    186
3.14159265358979,4.71238898038469,4.71238898038469,                  131P    187
6.28318530717959,6.28318530717959,6.28318530717959,1.,               131P    188
0.707106781186545,1.,0.707106781186545,1.,32.9392225358106,          131P    189
-36.2392225358106,5.,32.9392225358106,-32.9392225358106,5.,          131P    190
36.2392225358106,-32.9392225358106,5.,39.5392225358106,              131P    191
-32.9392225358106,5.,39.5392225358106,-36.2392225358106,5.,          131P    192
3.14159265358979,6.28318530717959,0.,0.,0.;                          131P    193
126,1,1,0,0,1,0,-2.27272727272727,-2.27272727272727,                 133P    194
-0.757575757575758,-0.757575757575758,1.,1.,32.9392225358106,        133P    195
-36.2392225358106,5.,32.9392225358106,-36.2392225358106,0.,          133P    196
-2.27272727272727,-0.757575757575758,0.,0.,0.;                       133P    197
126,8,2,0,1,0,0,-3.14159265358979,-3.14159265358979,                 135P    198
-3.14159265358979,-1.5707963267949,-1.5707963267949,0.,0.,           135P    199
1.5707963267949,1.5707963267949,3.14159265358979,                    135P    200
3.14159265358979,3.14159265358979,1.,0.707106781186545,1.,           135P    201
0.707106781186545,1.,0.707106781186545,1.,0.707106781186545,1.,      135P    202
32.9392225358106,-36.2392225358106,0.,32.9392225358106,              135P    203
-39.5392225358106,0.,36.2392225358106,-39.5392225358106,0.,          135P    204
39.5392225358106,-39.5392225358106,0.,39.5392225358106,              135P    205
-36.2392225358106,0.,39.5392225358106,-32.9392225358106,0.,          135P    206
36.2392225358106,-32.9392225358106,0.,32.9392225358106,              135P    207
-32.9392225358106,0.,32.9392225358106,-36.2392225358106,0.,          135P    208
-3.14159265358979,3.14159265358979,0.,0.,0.;                         135P    209
126,4,2,0,0,0,0,0.,0.,0.,1.5707963267949,1.5707963267949,            137P    210
3.14159265358979,3.14159265358979,3.14159265358979,1.,               137P    211
0.707106781186545,1.,0.707106781186545,1.,-32.9392225358106,         137P    212
-36.2392225358106,5.,-32.9392225358106,-39.5392225358106,5.,         137P    213
-36.2392225358106,-39.5392225358106,5.,-39.5392225358106,            137P    214
-39.5392225358106,5.,-39.5392225358106,-36.2392225358106,5.,0.,      137P    215
3.14159265358979,0.,0.,0.;                                           137P    216
126,4,2,0,0,0,0,3.14159265358979,3.14159265358979,                   139P    217
3.14159265358979,4.71238898038469,4.71238898038469,                  139P    218
6.28318530717959,6.28318530717959,6.28318530717959,1.,               139P    219
0.707106781186545,1.,0.707106781186545,1.,-39.5392225358106,         139P    220
-36.2392225358106,5.,-39.5392225358106,-32.9392225358106,5.,         139P    221
-36.2392225358106,-32.9392225358106,5.,-32.9392225358106,            139P    222
-32.9392225358106,5.,-32.9392225358106,-36.2392225358106,5.,         139P    223
3.14159265358979,6.28318530717959,0.,0.,0.;                          139P    224
126,1,1,0,0,1,0,-2.27272727272727,-2.27272727272727,                 141P    225
-0.757575757575758,-0.757575757575758,1.,1.,-39.5392225358106,       141P    226
-36.2392225358106,5.,-39.5392225358106,-36.2392225358106,0.,         141P    227
-2.27272727272727,-0.757575757575758,0.,0.,0.;                       141P    228
126,8,2,0,1,0,0,-3.14159265358979,-3.14159265358979,                 143P    229
-3.14159265358979,-1.5707963267949,-1.5707963267949,0.,0.,           143P    230
1.5707963267949,1.5707963267949,3.14159265358979,                    143P    231
3.14159265358979,3.14159265358979,1.,0.707106781186545,1.,           143P    232
0.707106781186545,1.,0.707106781186545,1.,0.707106781186545,1.,      143P    233
-39.5392225358106,-36.2392225358106,0.,-39.5392225358106,            143P    234
-39.5392225358106,0.,-36.2392225358106,-39.5392225358106,0.,         143P    235
-32.9392225358106,-39.5392225358106,0.,-32.9392225358106,            143P    236
-36.2392225358106,0.,-32.9392225358106,-32.9392225358106,0.,         143P    237
-36.2392225358106,-32.9392225358106,0.,-39.5392225358106,            143P    238
-32.9392225358106,0.,-39.5392225358106,-36.2392225358106,0.,         143P    239
-3.14159265358979,3.14159265358979,0.,0.,0.;                         143P    240
126,4,2,0,0,0,0,0.,0.,0.,1.5707963267949,1.5707963267949,            145P    241
3.14159265358979,3.14159265358979,3.14159265358979,1.,               145P    242
0.707106781186545,1.,0.707106781186545,1.,-32.9392225358106,         145P    243
36.2392225358106,5.,-32.9392225358106,32.9392225358106,5.,           145P    244
-36.2392225358106,32.9392225358106,5.,-39.5392225358106,             145P    245
32.9392225358106,5.,-39.5392225358106,36.2392225358106,5.,0.,        145P    246
3.14159265358979,0.,0.,0.;                                           145P    247
126,4,2,0,0,0,0,3.14159265358979,3.14159265358979,                   147P    248
3.14159265358979,4.71238898038469,4.71238898038469,                  147P    249
6.28318530717959,6.28318530717959,6.28318530717959,1.,               147P    250
0.707106781186545,1.,0.707106781186545,1.,-39.5392225358106,         147P    251
36.2392225358106,5.,-39.5392225358106,39.5392225358106,5.,           147P    252
-36.2392225358106,39.5392225358106,5.,-32.9392225358106,             147P    253
39.5392225358106,5.,-32.9392225358106,36.2392225358106,5.,           147P    254
3.14159265358979,6.28318530717959,0.,0.,0.;                          147P    255
126,1,1,0,0,1,0,-2.27272727272727,-2.27272727272727,                 149P    256
-0.757575757575758,-0.757575757575758,1.,1.,-39.5392225358106,       149P    257
36.2392225358106,5.,-39.5392225358106,36.2392225358106,0.,           149P    258
-2.27272727272727,-0.757575757575758,0.,0.,0.;                       149P    259
126,8,2,0,1,0,0,-3.14159265358979,-3.14159265358979,                 151P    260
-3.14159265358979,-1.5707963267949,-1.5707963267949,0.,0.,           151P    261
1.5707963267949,1.5707963267949,3.14159265358979,                    151P    262
3.14159265358979,3.14159265358979,1.,0.707106781186545,1.,           151P    263
0.707106781186545,1.,0.707106781186545,1.,0.707106781186545,1.,      151P    264
-39.5392225358106,36.2392225358106,0.,-39.5392225358106,             151P    265
32.9392225358106,0.,-36.2392225358106,32.9392225358106,0.,           151P    266
-32.9392225358106,32.9392225358106,0.,-32.9392225358106,             151P    267
36.2392225358106,0.,-32.9392225358106,39.5392225358106,0.,           151P    268
-36.2392225358106,39.5392225358106,0.,-39.5392225358106,             151P    269
39.5392225358106,0.,-39.5392225358106,36.2392225358106,0.,           151P    270
-3.14159265358979,3.14159265358979,0.,0.,0.;                         151P    271
126,4,2,0,0,0,0,0.,0.,0.,1.5707963267949,1.5707963267949,            153P    272
3.14159265358979,3.14159265358979,3.14159265358979,1.,               153P    273
0.707106781186548,1.,0.707106781186548,1.,45.,0.,5.,45.,-45.,5.,     153P    274
2.75545529808154D-15,-45.,5.,-45.,-45.,5.,-45.,                      153P    275
-5.51091059616309D-15,5.,0.,3.14159265358979,0.,0.,0.;               153P    276
126,4,2,0,0,0,0,3.14159265358979,3.14159265358979,                   155P    277
3.14159265358979,4.71238898038469,4.71238898038469,                  155P    278
6.28318530717959,6.28318530717959,6.28318530717959,1.,               155P    279
0.707106781186548,1.,0.707106781186547,1.,-45.,                      155P    280
-5.51091059616309D-15,5.,-45.,45.,5.,-8.26636589424463D-15,45.,      155P    281
5.,45.,45.,5.,45.,1.10218211923262D-14,5.,3.14159265358979,          155P    282
6.28318530717959,0.,0.,0.;                                           155P    283
126,1,1,0,0,1,0,-0.166666666666667,-0.166666666666667,               157P    284
-0.0555555555555556,-0.0555555555555556,1.,1.,-45.,0.,5.,-45.,       157P    285
0.,0.,-0.166666666666667,-0.0555555555555556,0.,0.,0.;               157P    286
126,8,2,0,1,0,0,-3.14159265358979,-3.14159265358979,                 159P    287
-3.14159265358979,-1.5707963267949,-1.5707963267949,0.,0.,           159P    288
1.5707963267949,1.5707963267949,3.14159265358979,                    159P    289
3.14159265358979,3.14159265358979,1.,0.707106781186548,1.,           159P    290
0.707106781186548,1.,0.707106781186548,1.,0.707106781186548,1.,      159P    291
-45.,-5.51091059616309D-15,0.,-45.,-45.,0.,2.75545529808154D-15,     159P    292
-45.,0.,45.,-45.,0.,45.,0.,0.,45.,45.,0.,2.75545529808154D-15,       159P    293
45.,0.,-45.,45.,0.,-45.,5.51091059616309D-15,0.,                     159P    294
-3.14159265358979,3.14159265358979,0.,0.,0.;                         159P    295
126,8,2,0,1,0,0,-3.14159265358979,-3.14159265358979,                 161P    296
-3.14159265358979,-1.5707963267949,-1.5707963267949,0.,0.,           161P    297
1.5707963267949,1.5707963267949,3.14159265358979,                    161P    298
3.14159265358979,3.14159265358979,1.,0.707106781186548,1.,           161P    299
0.707106781186548,1.,0.707106781186548,1.,0.707106781186548,1.,      161P    300
-57.5,-7.04171909509728D-15,5.,-57.5,-57.5,5.,                       161P    301
3.52085954754864D-15,-57.5,5.,57.5,-57.5,5.,57.5,0.,5.,57.5,         161P    302
57.5,5.,3.52085954754864D-15,57.5,5.,-57.5,57.5,5.,-57.5,            161P    303
7.04171909509728D-15,5.,-3.14159265358979,3.14159265358979,0.,       161P    304
0.,0.;                                                               161P    305
126,1,1,0,0,1,0,-0.0869565217391304,-0.0869565217391304,0.,0.,       163P    306
1.,1.,-57.5,0.,5.,-57.5,0.,0.,-0.0869565217391304,0.,0.,0.,0.;       163P    307
126,8,2,0,1,0,0,-3.14159265358979,-3.14159265358979,                 165P    308
-3.14159265358979,-1.5707963267949,-1.5707963267949,0.,0.,           165P    309
1.5707963267949,1.5707963267949,3.14159265358979,                    165P    310
3.14159265358979,3.14159265358979,1.,0.707106781186548,1.,           165P    311
0.707106781186548,1.,0.707106781186548,1.,0.707106781186548,1.,      165P    312
-57.5,-7.04171909509728D-15,0.,-57.5,-57.5,0.,                       165P    313
3.52085954754864D-15,-57.5,0.,57.5,-57.5,0.,57.5,0.,0.,57.5,         165P    314
57.5,0.,3.52085954754864D-15,57.5,0.,-57.5,57.5,0.,-57.5,            165P    315
7.04171909509728D-15,0.,-3.14159265358979,3.14159265358979,0.,       165P    316
0.,0.;                                                               165P    317
128,1,8,1,2,0,1,0,0,1,-2.27272727272727,-2.27272727272727,           167P    318
-0.757575757575758,-0.757575757575758,-3.14159265358979,             167P    319
-3.14159265358979,-3.14159265358979,-1.5707963267949,                167P    320
-1.5707963267949,0.,0.,1.5707963267949,1.5707963267949,              167P    321
3.14159265358979,3.14159265358979,3.14159265358979,1.,1.,            167P    322
0.707106781186548,0.707106781186548,1.,1.,0.707106781186548,         167P    323
0.707106781186548,1.,1.,0.707106781186548,0.707106781186548,1.,      167P    324
1.,0.707106781186548,0.707106781186548,1.,1.,-54.55,0.,5.,           167P    325
-54.55,0.,0.,-54.55,3.3,5.,-54.55,3.3,0.,-51.25,3.3,5.,-51.25,       167P    326
3.3,0.,-47.95,3.3,5.,-47.95,3.3,0.,-47.95,0.,5.,-47.95,0.,0.,        167P    327
-47.95,-3.3,5.,-47.95,-3.3,0.,-51.25,-3.3,5.,-51.25,-3.3,0.,         167P    328
-54.55,-3.3,5.,-54.55,-3.3,0.,-54.55,0.,5.,-54.55,0.,0.,             167P    329
-2.27272727272727,-0.757575757575758,-3.14159265358979,              167P    330
3.14159265358979;                                                    167P    331
128,1,8,1,2,0,1,0,0,1,-2.27272727272727,-2.27272727272727,           169P    332
-0.757575757575758,-0.757575757575758,-3.14159265358979,             169P    333
-3.14159265358979,-3.14159265358979,-1.5707963267949,                169P    334
-1.5707963267949,0.,0.,1.5707963267949,1.5707963267949,              169P    335
3.14159265358979,3.14159265358979,3.14159265358979,1.,1.,            169P    336
0.707106781186548,0.707106781186548,1.,1.,0.707106781186548,         169P    337
0.707106781186548,1.,1.,0.707106781186548,0.707106781186548,1.,      169P    338
1.,0.707106781186548,0.707106781186548,1.,1.,-3.3,-51.25,5.,         169P    339
-3.3,-51.25,0.,-3.3,-47.95,5.,-3.3,-47.95,0.,0.,-47.95,5.,0.,        169P    340
-47.95,0.,3.3,-47.95,5.,3.3,-47.95,0.,3.3,-51.25,5.,3.3,-51.25,      169P    341
0.,3.3,-54.55,5.,3.3,-54.55,0.,0.,-54.55,5.,0.,-54.55,0.,-3.3,       169P    342
-54.55,5.,-3.3,-54.55,0.,-3.3,-51.25,5.,-3.3,-51.25,0.,              169P    343
-2.27272727272727,-0.757575757575758,-3.14159265358979,              169P    344
3.14159265358979;                                                    169P    345
128,1,8,1,2,0,1,0,0,1,-2.27272727272727,-2.27272727272727,           171P    346
-0.757575757575758,-0.757575757575758,-3.14159265358979,             171P    347
-3.14159265358979,-3.14159265358979,-1.5707963267949,                171P    348
-1.5707963267949,0.,0.,1.5707963267949,1.5707963267949,              171P    349
3.14159265358979,3.14159265358979,3.14159265358979,1.,1.,            171P    350
0.707106781186548,0.707106781186548,1.,1.,0.707106781186548,         171P    351
0.707106781186548,1.,1.,0.707106781186548,0.707106781186548,1.,      171P    352
1.,0.707106781186548,0.707106781186548,1.,1.,47.95,0.,5.,47.95,      171P    353
0.,0.,47.95,3.3,5.,47.95,3.3,0.,51.25,3.3,5.,51.25,3.3,0.,54.55,     171P    354
3.3,5.,54.55,3.3,0.,54.55,0.,5.,54.55,0.,0.,54.55,-3.3,5.,54.55,     171P    355
-3.3,0.,51.25,-3.3,5.,51.25,-3.3,0.,47.95,-3.3,5.,47.95,-3.3,0.,     171P    356
47.95,0.,5.,47.95,0.,0.,-2.27272727272727,-0.757575757575758,        171P    357
-3.14159265358979,3.14159265358979;                                  171P    358
128,1,8,1,2,0,1,0,0,1,-2.27272727272727,-2.27272727272727,           173P    359
-0.757575757575758,-0.757575757575758,-3.14159265358979,             173P    360
-3.14159265358979,-3.14159265358979,-1.5707963267949,                173P    361
-1.5707963267949,0.,0.,1.5707963267949,1.5707963267949,              173P    362
3.14159265358979,3.14159265358979,3.14159265358979,1.,1.,            173P    363
0.707106781186548,0.707106781186548,1.,1.,0.707106781186548,         173P    364
0.707106781186548,1.,1.,0.707106781186548,0.707106781186548,1.,      173P    365
1.,0.707106781186548,0.707106781186548,1.,1.,-3.3,51.25,5.,-3.3,     173P    366
51.25,0.,-3.3,54.55,5.,-3.3,54.55,0.,0.,54.55,5.,0.,54.55,0.,        173P    367
3.3,54.55,5.,3.3,54.55,0.,3.3,51.25,5.,3.3,51.25,0.,3.3,47.95,       173P    368
5.,3.3,47.95,0.,0.,47.95,5.,0.,47.95,0.,-3.3,47.95,5.,-3.3,          173P    369
47.95,0.,-3.3,51.25,5.,-3.3,51.25,0.,-2.27272727272727,              173P    370
-0.757575757575758,-3.14159265358979,3.14159265358979;               173P    371
128,1,8,1,2,0,1,0,0,1,-2.27272727272727,-2.27272727272727,           175P    372
-0.757575757575758,-0.757575757575758,-3.14159265358979,             175P    373
-3.14159265358979,-3.14159265358979,-1.5707963267949,                175P    374
-1.5707963267949,0.,0.,1.5707963267949,1.5707963267949,              175P    375
3.14159265358979,3.14159265358979,3.14159265358979,1.,1.,            175P    376
0.707106781186548,0.707106781186548,1.,1.,0.707106781186548,         175P    377
0.707106781186548,1.,1.,0.707106781186548,0.707106781186548,1.,      175P    378
1.,0.707106781186548,0.707106781186548,1.,1.,32.9392225358106,       175P    379
36.2392225358106,5.,32.9392225358106,36.2392225358106,0.,            175P    380
32.9392225358106,39.5392225358106,5.,32.9392225358106,               175P    381
39.5392225358106,0.,36.2392225358106,39.5392225358106,5.,            175P    382
36.2392225358106,39.5392225358106,0.,39.5392225358106,               175P    383
39.5392225358106,5.,39.5392225358106,39.5392225358106,0.,            175P    384
39.5392225358106,36.2392225358106,5.,39.5392225358106,               175P    385
36.2392225358106,0.,39.5392225358106,32.9392225358106,5.,            175P    386
39.5392225358106,32.9392225358106,0.,36.2392225358106,               175P    387
32.9392225358106,5.,36.2392225358106,32.9392225358106,0.,            175P    388
32.9392225358106,32.9392225358106,5.,32.9392225358106,               175P    389
32.9392225358106,0.,32.9392225358106,36.2392225358106,5.,            175P    390
32.9392225358106,36.2392225358106,0.,-2.27272727272727,              175P    391
-0.757575757575758,-3.14159265358979,3.14159265358979;               175P    392
128,1,8,1,2,0,1,0,0,1,-2.27272727272727,-2.27272727272727,           177P    393
-0.757575757575758,-0.757575757575758,-3.14159265358979,             177P    394
-3.14159265358979,-3.14159265358979,-1.5707963267949,                177P    395
-1.5707963267949,0.,0.,1.5707963267949,1.5707963267949,              177P    396
3.14159265358979,3.14159265358979,3.14159265358979,1.,1.,            177P    397
0.707106781186548,0.707106781186548,1.,1.,0.707106781186548,         177P    398
0.707106781186548,1.,1.,0.707106781186548,0.707106781186548,1.,      177P    399
1.,0.707106781186548,0.707106781186548,1.,1.,32.9392225358106,       177P    400
-36.2392225358106,5.,32.9392225358106,-36.2392225358106,0.,          177P    401
32.9392225358106,-32.9392225358106,5.,32.9392225358106,              177P    402
-32.9392225358106,0.,36.2392225358106,-32.9392225358106,5.,          177P    403
36.2392225358106,-32.9392225358106,0.,39.5392225358106,              177P    404
-32.9392225358106,5.,39.5392225358106,-32.9392225358106,0.,          177P    405
39.5392225358106,-36.2392225358106,5.,39.5392225358106,              177P    406
-36.2392225358106,0.,39.5392225358106,-39.5392225358106,5.,          177P    407
39.5392225358106,-39.5392225358106,0.,36.2392225358106,              177P    408
-39.5392225358106,5.,36.2392225358106,-39.5392225358106,0.,          177P    409
32.9392225358106,-39.5392225358106,5.,32.9392225358106,              177P    410
-39.5392225358106,0.,32.9392225358106,-36.2392225358106,5.,          177P    411
32.9392225358106,-36.2392225358106,0.,-2.27272727272727,             177P    412
-0.757575757575758,-3.14159265358979,3.14159265358979;               177P    413
128,1,8,1,2,0,1,0,0,1,-2.27272727272727,-2.27272727272727,           179P    414
-0.757575757575758,-0.757575757575758,-3.14159265358979,             179P    415
-3.14159265358979,-3.14159265358979,-1.5707963267949,                179P    416
-1.5707963267949,0.,0.,1.5707963267949,1.5707963267949,              179P    417
3.14159265358979,3.14159265358979,3.14159265358979,1.,1.,            179P    418
0.707106781186548,0.707106781186548,1.,1.,0.707106781186548,         179P    419
0.707106781186548,1.,1.,0.707106781186548,0.707106781186548,1.,      179P    420
1.,0.707106781186548,0.707106781186548,1.,1.,-39.5392225358106,      179P    421
-36.2392225358106,5.,-39.5392225358106,-36.2392225358106,0.,         179P    422
-39.5392225358106,-32.9392225358106,5.,-39.5392225358106,            179P    423
-32.9392225358106,0.,-36.2392225358106,-32.9392225358106,5.,         179P    424
-36.2392225358106,-32.9392225358106,0.,-32.9392225358106,            179P    425
-32.9392225358106,5.,-32.9392225358106,-32.9392225358106,0.,         179P    426
-32.9392225358106,-36.2392225358106,5.,-32.9392225358106,            179P    427
-36.2392225358106,0.,-32.9392225358106,-39.5392225358106,5.,         179P    428
-32.9392225358106,-39.5392225358106,0.,-36.2392225358106,            179P    429
-39.5392225358106,5.,-36.2392225358106,-39.5392225358106,0.,         179P    430
-39.5392225358106,-39.5392225358106,5.,-39.5392225358106,            179P    431
-39.5392225358106,0.,-39.5392225358106,-36.2392225358106,5.,         179P    432
-39.5392225358106,-36.2392225358106,0.,-2.27272727272727,            179P    433
-0.757575757575758,-3.14159265358979,3.14159265358979;               179P    434
128,1,8,1,2,0,1,0,0,1,-2.27272727272727,-2.27272727272727,           181P    435
-0.757575757575758,-0.757575757575758,-3.14159265358979,             181P    436
-3.14159265358979,-3.14159265358979,-1.5707963267949,                181P    437
-1.5707963267949,0.,0.,1.5707963267949,1.5707963267949,              181P    438
3.14159265358979,3.14159265358979,3.14159265358979,1.,1.,            181P    439
0.707106781186548,0.707106781186548,1.,1.,0.707106781186548,         181P    440
0.707106781186548,1.,1.,0.707106781186548,0.707106781186548,1.,      181P    441
1.,0.707106781186548,0.707106781186548,1.,1.,-39.5392225358106,      181P    442
36.2392225358106,5.,-39.5392225358106,36.2392225358106,0.,           181P    443
-39.5392225358106,39.5392225358106,5.,-39.5392225358106,             181P    444
39.5392225358106,0.,-36.2392225358106,39.5392225358106,5.,           181P    445
-36.2392225358106,39.5392225358106,0.,-32.9392225358106,             181P    446
39.5392225358106,5.,-32.9392225358106,39.5392225358106,0.,           181P    447
-32.9392225358106,36.2392225358106,5.,-32.9392225358106,             181P    448
36.2392225358106,0.,-32.9392225358106,32.9392225358106,5.,           181P    449
-32.9392225358106,32.9392225358106,0.,-36.2392225358106,             181P    450
32.9392225358106,5.,-36.2392225358106,32.9392225358106,0.,           181P    451
-39.5392225358106,32.9392225358106,5.,-39.5392225358106,             181P    452
32.9392225358106,0.,-39.5392225358106,36.2392225358106,5.,           181P    453
-39.5392225358106,36.2392225358106,0.,-2.27272727272727,             181P    454
-0.757575757575758,-3.14159265358979,3.14159265358979;               181P    455
128,1,8,1,2,0,1,0,0,1,-0.166666666666667,-0.166666666666667,         183P    456
-0.0555555555555556,-0.0555555555555556,-3.14159265358979,           183P    457
-3.14159265358979,-3.14159265358979,-1.5707963267949,                183P    458
-1.5707963267949,0.,0.,1.5707963267949,1.5707963267949,              183P    459
3.14159265358979,3.14159265358979,3.14159265358979,1.,1.,            183P    460
0.707106781186548,0.707106781186548,1.,1.,0.707106781186548,         183P    461
0.707106781186548,1.,1.,0.707106781186548,0.707106781186548,1.,      183P    462
1.,0.707106781186548,0.707106781186548,1.,1.,-45.,0.,5.,-45.,0.,     183P    463
0.,-45.,45.,5.,-45.,45.,0.,0.,45.,5.,0.,45.,0.,45.,45.,5.,45.,       183P    464
45.,0.,45.,0.,5.,45.,0.,0.,45.,-45.,5.,45.,-45.,0.,0.,-45.,5.,       183P    465
0.,-45.,0.,-45.,-45.,5.,-45.,-45.,0.,-45.,0.,5.,-45.,0.,0.,          183P    466
-0.166666666666667,-0.0555555555555556,-3.14159265358979,            183P    467
3.14159265358979;                                                    183P    468
128,1,8,1,2,0,1,0,0,1,0.,0.,0.0869565217391304,                      185P    469
0.0869565217391304,-3.14159265358979,-3.14159265358979,              185P    470
-3.14159265358979,-1.5707963267949,-1.5707963267949,0.,0.,           185P    471
1.5707963267949,1.5707963267949,3.14159265358979,                    185P    472
3.14159265358979,3.14159265358979,1.,1.,0.707106781186548,           185P    473
0.707106781186548,1.,1.,0.707106781186548,0.707106781186548,1.,      185P    474
1.,0.707106781186548,0.707106781186548,1.,1.,0.707106781186548,      185P    475
0.707106781186548,1.,1.,-57.5,0.,5.,-57.5,0.,0.,-57.5,-57.5,5.,      185P    476
-57.5,-57.5,0.,0.,-57.5,5.,0.,-57.5,0.,57.5,-57.5,5.,57.5,-57.5,     185P    477
0.,57.5,0.,5.,57.5,0.,0.,57.5,57.5,5.,57.5,57.5,0.,0.,57.5,5.,       185P    478
0.,57.5,0.,-57.5,57.5,5.,-57.5,57.5,0.,-57.5,0.,5.,-57.5,0.,0.,      185P    479
0.,0.0869565217391304,-3.14159265358979,3.14159265358979;            185P    480
128,1,1,1,1,0,0,1,0,0,-5.751,-5.751,5.751,5.751,-5.751,-5.751,       187P    481
5.751,5.751,1.,1.,1.,1.,-57.51,-57.51,5.,57.51,-57.51,5.,-57.51,     187P    482
57.51,5.,57.51,57.51,5.,-5.751,5.751,-5.751,5.751;                   187P    483
128,1,1,1,1,0,0,1,0,0,-5.751,-5.751,5.751,5.751,-5.751,-5.751,       189P    484
5.751,5.751,1.,1.,1.,1.,57.51,-57.51,0.,-57.51,-57.51,0.,57.51,      189P    485
57.51,0.,-57.51,57.51,0.,-5.751,5.751,-5.751,5.751;                  189P    486
502,29,-47.95,0.,5.,-54.55,0.,5.,-54.55,-4.04133443718627D-16,       191P    487
0.,3.3,-51.25,5.,-3.3,-51.25,5.,-3.3,-51.25,0.,54.55,0.,5.,          191P    488
47.95,0.,5.,47.95,-4.04133443718627D-16,0.,3.3,51.25,5.,-3.3,        191P    489
51.25,5.,-3.3,51.25,0.,39.5392225358106,36.2392225358106,5.,         191P    490
32.9392225358106,36.2392225358106,5.,32.9392225358106,               191P    491
36.2392225358106,0.,39.5392225358106,-36.2392225358106,5.,           191P    492
32.9392225358106,-36.2392225358106,5.,32.9392225358106,              191P    493
-36.2392225358106,0.,-32.9392225358106,-36.2392225358106,5.,         191P    494
-39.5392225358106,-36.2392225358106,5.,-39.5392225358106,            191P    495
-36.2392225358106,0.,-32.9392225358106,36.2392225358106,5.,          191P    496
-39.5392225358106,36.2392225358106,5.,-39.5392225358106,             191P    497
36.2392225358106,0.,45.,0.,5.,-45.,0.,5.,-45.,                       191P    498
-5.51091059616309D-15,0.,-57.5,-7.04171909509728D-15,5.,-57.5,       191P    499
-7.04171909509728D-15,0.;                                            191P    500
504,39,89,191,1,191,2,91,191,2,191,1,93,191,2,191,3,95,191,3,        193P    501
191,3,97,191,4,191,5,99,191,5,191,4,101,191,5,191,6,103,191,6,       193P    502
191,6,105,191,7,191,8,107,191,8,191,7,109,191,8,191,9,111,191,9,     193P    503
191,9,113,191,10,191,11,115,191,11,191,10,117,191,11,191,12,119,     193P    504
191,12,191,12,121,191,13,191,14,123,191,14,191,13,125,191,14,        193P    505
191,15,127,191,15,191,15,129,191,16,191,17,131,191,17,191,16,        193P    506
133,191,17,191,18,135,191,18,191,18,137,191,19,191,20,139,191,       193P    507
20,191,19,141,191,20,191,21,143,191,21,191,21,145,191,22,191,23,     193P    508
147,191,23,191,22,149,191,23,191,24,151,191,24,191,24,153,191,       193P    509
25,191,26,155,191,26,191,25,157,191,26,191,27,159,191,27,191,27,     193P    510
161,191,28,191,28,163,191,28,191,29,165,191,29,191,29;               193P    511
406,1,5HBody1;                                                       195P    512
314,62.7450980392157,62.7450980392157,62.7450980392157,13HSteel      197P    513
- Satin;                                                             197P    514
S      1G      3D    198P    514                                        T      1
